<?xml version="1.0" standalone="no"?>
<!DOCTYPE svg PUBLIC "-//W3C//DTD SVG 20010904//EN"
 "http://www.w3.org/TR/2001/REC-SVG-20010904/DTD/svg10.dtd">
<svg version="1.0" xmlns="http://www.w3.org/2000/svg"
 width="300.000000pt" height="300.000000pt" viewBox="0 0 300.000000 300.000000"
 preserveAspectRatio="xMidYMid meet">
<metadata>
Created by potrace 1.11, written by Peter Selinger 2001-2013
</metadata>
<g transform="translate(0.000000,300.000000) scale(0.100000,-0.100000)"
fill="#000000" stroke="none">
<path d="M1049 1818 c-193 -136 -350 -246 -370 -258 -14 -8 -16 0 -16 75 0 47
-3 88 -7 92 -4 4 -43 8 -87 8 -73 1 -79 0 -80 -19 0 -12 0 -82 0 -156 l2 -135
-193 -135 c-106 -74 -217 -152 -246 -172 l-55 -38 152 0 152 0 217 153 c119
84 246 174 282 199 36 24 139 97 229 161 l164 116 74 -51 c40 -28 73 -54 73
-58 0 -4 -80 -63 -177 -131 -98 -69 -261 -183 -362 -255 l-184 -129 147 -3
147 -3 282 199 c155 109 288 202 295 206 9 5 36 -8 75 -35 203 -141 411 -287
422 -296 6 -4 32 -23 57 -41 l47 -33 147 3 147 3 -94 66 c-356 248 -629 443
-629 449 0 4 33 30 73 58 l74 51 447 -315 447 -315 147 3 146 3 -165 116
c-340 241 -975 686 -1000 702 -25 17 -26 17 -175 -88 -82 -58 -154 -103 -160
-101 -7 2 -72 47 -145 98 -74 52 -139 97 -145 101 -7 4 -76 -39 -155 -95z"/>
</g>
</svg>
